<svg id="Layer_1" data-name="Layer 1" xmlns="http://www.w3.org/2000/svg" viewBox="0 0 640 480"><rect x="-177.9" y="-38.04" width="985.55" height="553.35" fill="#12192b"/><rect x="225.75" y="414.32" width="5.55" height="43.12" transform="translate(-251.67 328.06) rotate(-49.68)" fill="#d6dc7c"/><rect x="116.93" y="419.45" width="5.55" height="43.12" transform="translate(-293.99 246.9) rotate(-49.68)" fill="#d6dc7c"/><rect x="29.36" y="445.42" width="43.12" height="5.55" transform="matrix(0.78, -0.63, 0.63, 0.78, -270.52, 131.73)" fill="#f4f07d"/><rect x="376.15" y="4.7" width="5.55" height="43.12" transform="translate(262.4 387.78) rotate(-76.1)" fill="#f4ee7c"/><rect x="448.22" y="125.63" width="43.12" height="5.55" transform="translate(-9.56 42.32) rotate(-5.11)" fill="#88dde3"/><rect x="367.43" y="64.24" width="5.55" height="43.12" transform="translate(30.12 255.38) rotate(-39.55)" fill="#598dee"/><rect x="608.38" y="271.41" width="43.12" height="5.55" transform="translate(-56.48 303.09) rotate(-25.93)" fill="#f5b155"/><rect x="575.32" y="162.8" width="5.55" height="43.12" transform="translate(32.89 450.69) rotate(-43.72)" fill="#ef7252"/><rect x="379.95" y="371.51" width="43.12" height="5.55" transform="translate(-133.05 249.62) rotate(-29.86)" fill="#3360a6"/><rect x="528.81" y="482.89" width="43.12" height="5.55" transform="translate(-168.75 338.53) rotate(-29.86)" fill="#80d3dc"/><rect x="5.8" y="437.18" width="44.54" height="44.54" transform="translate(-310.72 147.84) rotate(-43.9)" fill="#468af7"/><rect x="559.29" y="246.02" width="37.91" height="37.91" transform="translate(-19.07 483.6) rotate(-44.72)" fill="#7762d1"/><rect x="277.49" y="-41.06" width="41" height="41" transform="translate(100.73 203.74) rotate(-44.72)" fill="#458bf7"/><rect x="482.81" y="422.09" width="37.91" height="37.91" transform="translate(-165.6 471.14) rotate(-43.9)" fill="#e64acd"/><path d="M317.65,327a2.57,2.57,0,1,1-2.57,2.57A2.56,2.56,0,0,1,317.65,327Zm41.12,41.12a2.57,2.57,0,1,1-2.57-2.57A2.56,2.56,0,0,1,358.77,368.1Zm-9.64,0a2.57,2.57,0,1,1-2.57-2.57A2.56,2.56,0,0,1,349.13,368.1Zm9.64-9.64a2.57,2.57,0,1,1-2.57-2.57A2.57,2.57,0,0,1,358.77,358.46Zm-9.64,0a2.57,2.57,0,1,1-2.57-2.57A2.57,2.57,0,0,1,349.13,358.46Zm-28.92,9.64a2.57,2.57,0,1,1-2.56-2.57A2.56,2.56,0,0,1,320.21,368.1Zm19.28,0a2.57,2.57,0,1,1-2.56-2.57A2.56,2.56,0,0,1,339.49,368.1Zm-9.64,0a2.57,2.57,0,1,1-2.56-2.57A2.56,2.56,0,0,1,329.85,368.1Zm-9.64-9.64a2.57,2.57,0,1,1-2.56-2.57A2.57,2.57,0,0,1,320.21,358.46Zm19.28,0a2.57,2.57,0,1,1-2.56-2.57A2.57,2.57,0,0,1,339.49,358.46Zm-9.64,0a2.57,2.57,0,1,1-2.56-2.57A2.57,2.57,0,0,1,329.85,358.46Zm28.92-9.63a2.57,2.57,0,1,1-2.57-2.58A2.57,2.57,0,0,1,358.77,348.83Zm-9.64,0a2.57,2.57,0,1,1-2.57-2.58A2.57,2.57,0,0,1,349.13,348.83Zm9.64-9.64a2.57,2.57,0,1,1-2.57-2.58A2.57,2.57,0,0,1,358.77,339.19ZM346.56,327a2.57,2.57,0,1,1-2.57,2.57A2.56,2.56,0,0,1,346.56,327Zm9.64,0a2.57,2.57,0,1,1-2.57,2.57A2.56,2.56,0,0,1,356.2,327Zm-7.07,12.21a2.57,2.57,0,1,1-2.57-2.58A2.57,2.57,0,0,1,349.13,339.19Zm-28.92,9.64a2.57,2.57,0,1,1-2.56-2.58A2.56,2.56,0,0,1,320.21,348.83Zm19.28,0a2.57,2.57,0,1,1-2.56-2.58A2.56,2.56,0,0,1,339.49,348.83Zm-9.64,0a2.57,2.57,0,1,1-2.56-2.58A2.56,2.56,0,0,1,329.85,348.83Zm-9.64-9.64a2.57,2.57,0,1,1-2.56-2.58A2.56,2.56,0,0,1,320.21,339.19Zm19.28,0a2.57,2.57,0,1,1-2.56-2.58A2.56,2.56,0,0,1,339.49,339.19ZM327.29,327a2.57,2.57,0,1,1-2.58,2.57A2.56,2.56,0,0,1,327.29,327Zm9.64,0a2.57,2.57,0,1,1-2.58,2.57A2.56,2.56,0,0,1,336.93,327Zm-7.08,12.21a2.57,2.57,0,1,1-2.56-2.58A2.56,2.56,0,0,1,329.85,339.19Z" fill="#fef889" fill-rule="evenodd"/><path d="M128.24-12.32a2.57,2.57,0,0,1,2.56,2.57,2.56,2.56,0,0,1-2.56,2.56,2.55,2.55,0,0,1-2.57-2.56A2.56,2.56,0,0,1,128.24-12.32Zm41.11,41.13a2.57,2.57,0,1,1-2.56-2.58A2.56,2.56,0,0,1,169.35,28.81Zm-9.63,0a2.57,2.57,0,1,1-2.57-2.58A2.57,2.57,0,0,1,159.72,28.81Zm9.63-9.64a2.57,2.57,0,1,1-2.56-2.58A2.56,2.56,0,0,1,169.35,19.17Zm-9.63,0a2.57,2.57,0,1,1-2.57-2.58A2.57,2.57,0,0,1,159.72,19.17ZM130.8,28.81a2.57,2.57,0,1,1-2.56-2.58A2.56,2.56,0,0,1,130.8,28.81Zm19.28,0a2.57,2.57,0,1,1-2.56-2.58A2.56,2.56,0,0,1,150.08,28.81Zm-9.64,0a2.57,2.57,0,1,1-2.56-2.58A2.56,2.56,0,0,1,140.44,28.81Zm-9.64-9.64a2.57,2.57,0,1,1-2.56-2.58A2.56,2.56,0,0,1,130.8,19.17Zm19.28,0a2.57,2.57,0,1,1-2.56-2.58A2.56,2.56,0,0,1,150.08,19.17Zm-9.64,0a2.57,2.57,0,1,1-2.56-2.58A2.56,2.56,0,0,1,140.44,19.17Zm28.91-9.64A2.57,2.57,0,1,1,166.79,7,2.56,2.56,0,0,1,169.35,9.53Zm-9.63,0A2.57,2.57,0,1,1,157.15,7,2.57,2.57,0,0,1,159.72,9.53Zm9.63-9.64a2.56,2.56,0,0,1-2.56,2.56,2.57,2.57,0,0,1-2.57-2.56,2.57,2.57,0,0,1,2.57-2.57A2.56,2.56,0,0,1,169.35-.11Zm-12.2-12.21a2.57,2.57,0,0,1,2.57,2.57,2.56,2.56,0,0,1-2.57,2.56,2.56,2.56,0,0,1-2.57-2.56A2.57,2.57,0,0,1,157.15-12.32Zm9.64,0a2.56,2.56,0,0,1,2.56,2.57,2.55,2.55,0,0,1-2.56,2.56,2.56,2.56,0,0,1-2.57-2.56A2.57,2.57,0,0,1,166.79-12.32ZM159.72-.11a2.57,2.57,0,0,1-2.57,2.56,2.57,2.57,0,0,1-2.57-2.56,2.57,2.57,0,0,1,2.57-2.57A2.57,2.57,0,0,1,159.72-.11ZM130.8,9.53A2.57,2.57,0,1,1,128.24,7,2.56,2.56,0,0,1,130.8,9.53Zm19.28,0A2.57,2.57,0,1,1,147.52,7,2.56,2.56,0,0,1,150.08,9.53Zm-9.64,0A2.57,2.57,0,1,1,137.88,7,2.56,2.56,0,0,1,140.44,9.53ZM130.8-.11a2.56,2.56,0,0,1-2.56,2.56,2.56,2.56,0,0,1-2.57-2.56,2.56,2.56,0,0,1,2.57-2.57A2.57,2.57,0,0,1,130.8-.11Zm19.28,0a2.56,2.56,0,0,1-2.56,2.56,2.57,2.57,0,0,1-2.58-2.56,2.57,2.57,0,0,1,2.58-2.57A2.57,2.57,0,0,1,150.08-.11Zm-12.2-12.21a2.57,2.57,0,0,1,2.56,2.57,2.56,2.56,0,0,1-2.56,2.56,2.56,2.56,0,0,1-2.58-2.56A2.57,2.57,0,0,1,137.88-12.32Zm9.64,0a2.57,2.57,0,0,1,2.56,2.57,2.56,2.56,0,0,1-2.56,2.56,2.56,2.56,0,0,1-2.58-2.56A2.57,2.57,0,0,1,147.52-12.32ZM140.44-.11a2.56,2.56,0,0,1-2.56,2.56A2.57,2.57,0,0,1,135.3-.11a2.57,2.57,0,0,1,2.58-2.57A2.57,2.57,0,0,1,140.44-.11Z" fill="#7064c8" fill-rule="evenodd"/><path d="M-2.14,170.93A2.57,2.57,0,0,1,.42,173.5a2.57,2.57,0,0,1-2.56,2.57,2.57,2.57,0,0,1-2.58-2.57A2.57,2.57,0,0,1-2.14,170.93ZM39,212.06a2.57,2.57,0,1,1-2.56-2.58A2.56,2.56,0,0,1,39,212.06Zm-9.63,0a2.57,2.57,0,1,1-2.57-2.58A2.57,2.57,0,0,1,29.34,212.06ZM39,202.42a2.57,2.57,0,1,1-2.56-2.58A2.56,2.56,0,0,1,39,202.42Zm-9.63,0a2.57,2.57,0,1,1-2.57-2.58A2.57,2.57,0,0,1,29.34,202.42ZM.42,212.06a2.56,2.56,0,0,1-2.56,2.56,2.57,2.57,0,0,1-2.58-2.56,2.57,2.57,0,0,1,2.58-2.58A2.57,2.57,0,0,1,.42,212.06Zm19.28,0a2.57,2.57,0,1,1-2.56-2.58A2.56,2.56,0,0,1,19.7,212.06Zm-9.64,0a2.57,2.57,0,1,1-2.56-2.58A2.56,2.56,0,0,1,10.06,212.06ZM.42,202.42A2.56,2.56,0,0,1-2.14,205a2.57,2.57,0,0,1-2.58-2.56,2.57,2.57,0,0,1,2.58-2.58A2.57,2.57,0,0,1,.42,202.42Zm19.28,0a2.57,2.57,0,1,1-2.56-2.58A2.56,2.56,0,0,1,19.7,202.42Zm-9.64,0a2.57,2.57,0,1,1-2.56-2.58A2.56,2.56,0,0,1,10.06,202.42ZM39,192.78a2.57,2.57,0,1,1-2.56-2.57A2.56,2.56,0,0,1,39,192.78Zm-9.63,0a2.57,2.57,0,1,1-2.57-2.57A2.57,2.57,0,0,1,29.34,192.78ZM39,183.14a2.57,2.57,0,1,1-2.56-2.57A2.56,2.56,0,0,1,39,183.14Zm-12.2-12.21a2.57,2.57,0,1,1-2.57,2.57A2.57,2.57,0,0,1,26.77,170.93Zm9.64,0a2.57,2.57,0,1,1-2.57,2.57A2.57,2.57,0,0,1,36.41,170.93Zm-7.07,12.21a2.57,2.57,0,1,1-2.57-2.57A2.57,2.57,0,0,1,29.34,183.14ZM.42,192.78a2.56,2.56,0,0,1-2.56,2.56,2.57,2.57,0,0,1-2.58-2.56,2.57,2.57,0,0,1,2.58-2.57A2.57,2.57,0,0,1,.42,192.78Zm19.28,0a2.57,2.57,0,1,1-2.56-2.57A2.56,2.56,0,0,1,19.7,192.78Zm-9.64,0a2.57,2.57,0,1,1-2.56-2.57A2.56,2.56,0,0,1,10.06,192.78ZM.42,183.14a2.56,2.56,0,0,1-2.56,2.56,2.57,2.57,0,0,1-2.58-2.56,2.57,2.57,0,0,1,2.58-2.57A2.57,2.57,0,0,1,.42,183.14Zm19.28,0a2.57,2.57,0,1,1-2.56-2.57A2.56,2.56,0,0,1,19.7,183.14ZM7.5,170.93a2.57,2.57,0,1,1-2.58,2.57A2.57,2.57,0,0,1,7.5,170.93Zm9.64,0a2.57,2.57,0,1,1-2.58,2.57A2.57,2.57,0,0,1,17.14,170.93Zm-7.08,12.21a2.57,2.57,0,1,1-2.56-2.57A2.56,2.56,0,0,1,10.06,183.14Z" fill="#6ea775" fill-rule="evenodd"/><path d="M536.83,101.63a2.57,2.57,0,1,1-2.57,2.58A2.56,2.56,0,0,1,536.83,101.63ZM578,142.76a2.57,2.57,0,1,1-2.56-2.57A2.56,2.56,0,0,1,578,142.76Zm-9.64,0a2.57,2.57,0,1,1-2.56-2.57A2.56,2.56,0,0,1,568.31,142.76Zm9.64-9.64a2.57,2.57,0,1,1-2.56-2.57A2.56,2.56,0,0,1,578,133.12Zm-9.64,0a2.57,2.57,0,1,1-2.56-2.57A2.56,2.56,0,0,1,568.31,133.12Zm-28.92,9.64a2.57,2.57,0,1,1-2.56-2.57A2.56,2.56,0,0,1,539.39,142.76Zm19.28,0a2.57,2.57,0,1,1-2.56-2.57A2.56,2.56,0,0,1,558.67,142.76Zm-9.64,0a2.57,2.57,0,1,1-2.56-2.57A2.56,2.56,0,0,1,549,142.76Zm-9.64-9.64a2.57,2.57,0,1,1-2.56-2.57A2.56,2.56,0,0,1,539.39,133.12Zm19.28,0a2.57,2.57,0,1,1-2.56-2.57A2.56,2.56,0,0,1,558.67,133.12Zm-9.64,0a2.57,2.57,0,1,1-2.56-2.57A2.56,2.56,0,0,1,549,133.12ZM578,123.48a2.57,2.57,0,1,1-2.56-2.57A2.57,2.57,0,0,1,578,123.48Zm-9.64,0a2.57,2.57,0,1,1-2.56-2.57A2.57,2.57,0,0,1,568.31,123.48Zm9.64-9.63a2.57,2.57,0,1,1-2.56-2.58A2.56,2.56,0,0,1,578,113.85Zm-12.2-12.22a2.57,2.57,0,1,1-2.58,2.58A2.57,2.57,0,0,1,565.75,101.63Zm9.64,0a2.57,2.57,0,1,1-2.58,2.58A2.57,2.57,0,0,1,575.39,101.63Zm-7.08,12.22a2.57,2.57,0,1,1-2.56-2.58A2.56,2.56,0,0,1,568.31,113.85Zm-28.92,9.63a2.57,2.57,0,1,1-2.56-2.57A2.56,2.56,0,0,1,539.39,123.48Zm19.28,0a2.57,2.57,0,1,1-2.56-2.57A2.57,2.57,0,0,1,558.67,123.48Zm-9.64,0a2.57,2.57,0,1,1-2.56-2.57A2.57,2.57,0,0,1,549,123.48Zm-9.64-9.63a2.57,2.57,0,1,1-2.56-2.58A2.56,2.56,0,0,1,539.39,113.85Zm19.28,0a2.57,2.57,0,1,1-2.56-2.58A2.56,2.56,0,0,1,558.67,113.85Zm-12.2-12.22a2.57,2.57,0,1,1-2.57,2.58A2.57,2.57,0,0,1,546.47,101.63Zm9.64,0a2.57,2.57,0,1,1-2.58,2.58A2.57,2.57,0,0,1,556.11,101.63ZM549,113.85a2.57,2.57,0,1,1-2.56-2.58A2.56,2.56,0,0,1,549,113.85Z" fill="#ce5dbf" fill-rule="evenodd"/><path d="M603.56,416.8a2.57,2.57,0,1,1-2.57,2.58A2.56,2.56,0,0,1,603.56,416.8Zm41.12,41.13a2.57,2.57,0,1,1-2.56-2.57A2.56,2.56,0,0,1,644.68,457.93Zm-9.64,0a2.57,2.57,0,1,1-2.56-2.57A2.56,2.56,0,0,1,635,457.93Zm9.64-9.64a2.57,2.57,0,1,1-2.56-2.57A2.57,2.57,0,0,1,644.68,448.29Zm-9.64,0a2.57,2.57,0,1,1-2.56-2.57A2.57,2.57,0,0,1,635,448.29Zm-28.92,9.64a2.57,2.57,0,1,1-2.56-2.57A2.56,2.56,0,0,1,606.12,457.93Zm19.28,0a2.57,2.57,0,1,1-2.56-2.57A2.56,2.56,0,0,1,625.4,457.93Zm-9.64,0a2.57,2.57,0,1,1-2.56-2.57A2.56,2.56,0,0,1,615.76,457.93Zm-9.64-9.64a2.57,2.57,0,1,1-2.56-2.57A2.56,2.56,0,0,1,606.12,448.29Zm19.28,0a2.57,2.57,0,1,1-2.56-2.57A2.57,2.57,0,0,1,625.4,448.29Zm-9.64,0a2.57,2.57,0,1,1-2.56-2.57A2.57,2.57,0,0,1,615.76,448.29Zm28.92-9.64a2.57,2.57,0,1,1-2.56-2.57A2.57,2.57,0,0,1,644.68,438.65Zm-9.64,0a2.57,2.57,0,1,1-2.56-2.57A2.57,2.57,0,0,1,635,438.65Zm9.64-9.63a2.57,2.57,0,1,1-2.56-2.58A2.56,2.56,0,0,1,644.68,429Zm-12.2-12.22a2.57,2.57,0,1,1-2.58,2.58A2.57,2.57,0,0,1,632.48,416.8Zm9.64,0a2.57,2.57,0,1,1-2.58,2.58A2.57,2.57,0,0,1,642.12,416.8ZM635,429a2.57,2.57,0,1,1-2.56-2.58A2.56,2.56,0,0,1,635,429Zm-28.92,9.63a2.57,2.57,0,1,1-2.56-2.57A2.56,2.56,0,0,1,606.12,438.65Zm19.28,0a2.57,2.57,0,1,1-2.56-2.57A2.57,2.57,0,0,1,625.4,438.65Zm-9.64,0a2.57,2.57,0,1,1-2.56-2.57A2.57,2.57,0,0,1,615.76,438.65ZM606.12,429a2.57,2.57,0,1,1-2.56-2.58A2.56,2.56,0,0,1,606.12,429Zm19.28,0a2.57,2.57,0,1,1-2.56-2.58A2.56,2.56,0,0,1,625.4,429ZM613.2,416.8a2.57,2.57,0,1,1-2.57,2.58A2.57,2.57,0,0,1,613.2,416.8Zm9.64,0a2.57,2.57,0,1,1-2.57,2.58A2.57,2.57,0,0,1,622.84,416.8ZM615.76,429a2.57,2.57,0,1,1-2.56-2.58A2.56,2.56,0,0,1,615.76,429Z" fill="#a6eca9" fill-rule="evenodd"/><path d="M192.61,482.69a39,39,0,0,0-55-1.46.8.8,0,0,0,0,1.13L190,537.67a.8.8,0,0,0,1.13,0A39,39,0,0,0,192.61,482.69Z" fill="#e64ace"/><path d="M405.94,393.25a39,39,0,0,0-7.55,54.52.8.8,0,0,0,1.12.15l60.78-46a.81.81,0,0,0,.16-1.12A39,39,0,0,0,405.94,393.25Z" fill="#8ad38d"/><path d="M64,43.83A42.14,42.14,0,1,1,22,85.92,42.14,42.14,0,0,1,64,43.83Zm0,4.66a37.48,37.48,0,1,0,37.53,37.43A37.48,37.48,0,0,0,64,48.49Z" fill="#405e8f" fill-rule="evenodd"/><path d="M639.45,322.56a42.14,42.14,0,1,1-42.08,42.08A42.14,42.14,0,0,1,639.45,322.56Zm0,4.65A37.48,37.48,0,1,0,677,364.64,37.48,37.48,0,0,0,639.45,327.21Z" fill="#658471" fill-rule="evenodd"/><path d="M546.78-.84a40.74,40.74,0,0,0-57.56.31.83.83,0,0,0,0,1.18L545.9,56.72a.84.84,0,0,0,1.19,0A40.76,40.76,0,0,0,546.78-.84Z" fill="#ef704c"/><path d="M164.68,341.63a40.09,40.09,0,0,0-55.8-9.75.82.82,0,0,0-.2,1.14l45.11,64.21a.82.82,0,0,0,1.14.2A40.09,40.09,0,0,0,164.68,341.63Z" fill="#f4ad4f"/><ellipse cx="43.85" cy="258.09" rx="8.98" ry="9.42" fill="#c350b8"/><ellipse cx="34.73" cy="53.84" rx="8.08" ry="8.47" fill="#e6e35f"/><ellipse cx="12.45" cy="370.75" rx="5.81" ry="6.09" fill="#f07960"/><ellipse cx="287.67" cy="472.65" rx="8.98" ry="9.42" fill="#c350b8"/><ellipse cx="247.54" cy="393.84" rx="5.81" ry="6.09" fill="#f07960"/><ellipse cx="339.28" cy="444.14" rx="8.75" ry="9.17" fill="#81dde8"/><ellipse cx="390.76" cy="482.13" rx="5.81" ry="6.09" fill="#f07960"/><ellipse cx="415.76" cy="323" rx="8.75" ry="9.17" fill="#f3a645"/><ellipse cx="507.08" cy="341.74" rx="4.58" ry="4.81" fill="#f2e763"/><ellipse cx="456.83" cy="-2.95" rx="8.75" ry="9.17" fill="#ece360"/><ellipse cx="501.38" cy="64.55" rx="5.56" ry="5.83" fill="#e648c9"/><ellipse cx="332.84" cy="84.29" rx="4.36" ry="4.57" fill="#705fd6"/><ellipse cx="612.08" cy="109.47" rx="17.2" ry="18.03" fill="#ef6e48"/><ellipse cx="259.19" cy="73.86" rx="5.14" ry="5.39" fill="#408df7"/><ellipse cx="193.05" cy="94.14" rx="8.81" ry="9.24" fill="#fdffff"/><ellipse cx="563.1" cy="368.31" rx="13.89" ry="14.57" fill="#78dadd"/><path d="M603.31.89a10.18,10.18,0,1,0,10.18,10.18A10.19,10.19,0,0,0,603.31.89Zm0,18.91A8.74,8.74,0,1,1,612,11.07,8.75,8.75,0,0,1,603.31,19.8Z" fill="#8fb096"/><path d="M603.31-10.39a21.47,21.47,0,1,0,21.47,21.47A21.49,21.49,0,0,0,603.31-10.39Zm0,41.85A20.39,20.39,0,1,1,623.7,11.08,20.41,20.41,0,0,1,603.31,31.46Z" fill="#8fb096"/><path d="M74.6,376.12A10.18,10.18,0,1,0,84.78,386.3,10.19,10.19,0,0,0,74.6,376.12Zm0,18.91a8.74,8.74,0,1,1,8.73-8.73A8.75,8.75,0,0,1,74.6,395Z" fill="#457571"/><path d="M309.69,399.22a10.18,10.18,0,1,0,10.18,10.18A10.19,10.19,0,0,0,309.69,399.22Zm0,18.91a8.74,8.74,0,1,1,8.74-8.73A8.74,8.74,0,0,1,309.69,418.13Z" fill="#457571"/></svg>