<svg id="Layer_1" data-name="Layer 1" xmlns="http://www.w3.org/2000/svg" viewBox="0 0 1024 768"><rect x="-197.96" y="-1.99" width="1381.58" height="775.7" fill="#12192b"/><rect x="12.43" y="401.16" width="7.77" height="60.44" transform="translate(-323.13 164.68) rotate(-49.68)" fill="#d6dc7c"/><rect x="367.9" y="632.14" width="7.77" height="60.44" transform="translate(-373.79 517.21) rotate(-49.68)" fill="#d6dc7c"/><rect x="215.35" y="639.34" width="7.77" height="60.44" transform="translate(-433.11 403.44) rotate(-49.68)" fill="#d6dc7c"/><rect x="92.59" y="675.75" width="60.44" height="7.77" transform="translate(-400.06 228.43) rotate(-38.96)" fill="#f4f07d"/><rect x="-18.94" y="226.73" width="60.44" height="7.77" transform="translate(-148.96 64.38) rotate(-41.15)" fill="#7361d0"/><rect x="578.74" y="57.92" width="7.77" height="60.44" transform="translate(357.08 632.52) rotate(-76.1)" fill="#f4ee7c"/><rect x="679.77" y="227.45" width="60.44" height="7.77" transform="translate(-17.77 64.11) rotate(-5.11)" fill="#88dde3"/><rect x="566.5" y="141.39" width="7.77" height="60.44" transform="translate(21.32 402.51) rotate(-39.55)" fill="#598dee"/><rect x="904.27" y="431.81" width="60.44" height="7.77" transform="translate(-96.44 452.54) rotate(-25.93)" fill="#f5b155"/><rect x="857.93" y="279.55" width="7.77" height="60.44" transform="translate(24.89 681.58) rotate(-43.72)" fill="#ef7252"/><rect x="1034.23" y="103.25" width="7.77" height="60.44" transform="translate(216.85 782.34) rotate(-45.64)" fill="#dc4dcf"/><rect x="584.06" y="572.13" width="60.44" height="7.77" transform="translate(-205.25 382.35) rotate(-29.86)" fill="#3360a6"/><rect x="792.74" y="728.28" width="60.44" height="7.77" transform="translate(-255.29 506.99) rotate(-29.86)" fill="#80d3dc"/><rect x="59.56" y="664.19" width="62.44" height="62.44" transform="translate(-456.81 257.25) rotate(-43.9)" fill="#468af7"/><rect x="835.47" y="396.22" width="53.14" height="53.14" transform="translate(-47.97 728.98) rotate(-44.72)" fill="#7762d1"/><rect x="-53.21" y="130.5" width="57.48" height="57.48" transform="translate(-119.13 28.88) rotate(-44.72)" fill="#ef6f4c"/><rect x="440.42" y="-6.22" width="57.48" height="57.48" transform="translate(119.97 336.65) rotate(-44.72)" fill="#458bf7"/><rect x="728.25" y="643.03" width="53.14" height="53.14" transform="translate(-253.37 710.46) rotate(-43.9)" fill="#e64acd"/><path d="M-50.87,644.26a3.6,3.6,0,0,1,3.59,3.61,3.59,3.59,0,0,1-3.59,3.59,3.6,3.6,0,0,1-3.61-3.59A3.6,3.6,0,0,1-50.87,644.26ZM6.76,701.92a3.6,3.6,0,1,1-3.59-3.61A3.59,3.59,0,0,1,6.76,701.92Zm-13.51,0a3.59,3.59,0,0,1-3.59,3.59,3.6,3.6,0,0,1-3.61-3.59,3.6,3.6,0,0,1,3.61-3.61A3.6,3.6,0,0,1-6.75,701.92ZM6.76,688.4a3.6,3.6,0,1,1-3.59-3.6A3.6,3.6,0,0,1,6.76,688.4Zm-13.51,0a3.6,3.6,0,0,1-3.59,3.6,3.61,3.61,0,0,1-3.61-3.6,3.6,3.6,0,0,1,3.61-3.6A3.6,3.6,0,0,1-6.75,688.4Zm-40.53,13.52a3.59,3.59,0,0,1-3.59,3.59,3.6,3.6,0,0,1-3.61-3.59,3.6,3.6,0,0,1,3.61-3.61A3.6,3.6,0,0,1-47.28,701.92Zm27,0a3.59,3.59,0,0,1-3.59,3.59,3.6,3.6,0,0,1-3.61-3.59,3.6,3.6,0,0,1,3.61-3.61A3.6,3.6,0,0,1-20.26,701.92Zm-13.51,0a3.59,3.59,0,0,1-3.59,3.59A3.6,3.6,0,0,1-41,701.92a3.6,3.6,0,0,1,3.61-3.61A3.6,3.6,0,0,1-33.77,701.92ZM-47.28,688.4a3.6,3.6,0,0,1-3.59,3.6,3.61,3.61,0,0,1-3.61-3.6,3.6,3.6,0,0,1,3.61-3.6A3.6,3.6,0,0,1-47.28,688.4Zm27,0a3.6,3.6,0,0,1-3.59,3.6,3.61,3.61,0,0,1-3.61-3.6,3.6,3.6,0,0,1,3.61-3.6A3.6,3.6,0,0,1-20.26,688.4Zm-13.51,0a3.6,3.6,0,0,1-3.59,3.6A3.61,3.61,0,0,1-41,688.4a3.6,3.6,0,0,1,3.61-3.6A3.6,3.6,0,0,1-33.77,688.4ZM6.76,674.89a3.6,3.6,0,1,1-3.59-3.61A3.59,3.59,0,0,1,6.76,674.89Zm-13.51,0a3.59,3.59,0,0,1-3.59,3.59,3.6,3.6,0,0,1-3.61-3.59,3.61,3.61,0,0,1,3.61-3.61A3.6,3.6,0,0,1-6.75,674.89ZM6.76,661.38a3.6,3.6,0,1,1-3.59-3.61A3.59,3.59,0,0,1,6.76,661.38Zm-17.1-17.12a3.6,3.6,0,0,1,3.59,3.61,3.59,3.59,0,0,1-3.59,3.59,3.6,3.6,0,0,1-3.61-3.59A3.6,3.6,0,0,1-10.34,644.26Zm13.51,0a3.6,3.6,0,1,1-3.61,3.61A3.6,3.6,0,0,1,3.17,644.26Zm-9.92,17.12A3.59,3.59,0,0,1-10.34,665a3.6,3.6,0,0,1-3.61-3.59,3.6,3.6,0,0,1,3.61-3.61A3.6,3.6,0,0,1-6.75,661.38Zm-40.53,13.51a3.59,3.59,0,0,1-3.59,3.59,3.6,3.6,0,0,1-3.61-3.59,3.61,3.61,0,0,1,3.61-3.61A3.6,3.6,0,0,1-47.28,674.89Zm27,0a3.59,3.59,0,0,1-3.59,3.59,3.6,3.6,0,0,1-3.61-3.59,3.61,3.61,0,0,1,3.61-3.61A3.6,3.6,0,0,1-20.26,674.89Zm-13.51,0a3.59,3.59,0,0,1-3.59,3.59A3.6,3.6,0,0,1-41,674.89a3.61,3.61,0,0,1,3.61-3.61A3.6,3.6,0,0,1-33.77,674.89Zm-13.51-13.51A3.59,3.59,0,0,1-50.87,665a3.6,3.6,0,0,1-3.61-3.59,3.6,3.6,0,0,1,3.61-3.61A3.6,3.6,0,0,1-47.28,661.38Zm27,0A3.59,3.59,0,0,1-23.85,665a3.6,3.6,0,0,1-3.61-3.59,3.6,3.6,0,0,1,3.61-3.61A3.6,3.6,0,0,1-20.26,661.38Zm-17.1-17.12a3.6,3.6,0,0,1,3.59,3.61,3.59,3.59,0,0,1-3.59,3.59A3.6,3.6,0,0,1-41,647.87,3.6,3.6,0,0,1-37.36,644.26Zm13.51,0a3.6,3.6,0,0,1,3.59,3.61,3.59,3.59,0,0,1-3.59,3.59,3.6,3.6,0,0,1-3.61-3.59A3.6,3.6,0,0,1-23.85,644.26Zm-9.92,17.12A3.59,3.59,0,0,1-37.36,665,3.6,3.6,0,0,1-41,661.38a3.6,3.6,0,0,1,3.61-3.61A3.6,3.6,0,0,1-33.77,661.38Z" fill="#e84acb" fill-rule="evenodd"/><path d="M496.72,509.7a3.6,3.6,0,1,1-3.61,3.61A3.6,3.6,0,0,1,496.72,509.7Zm57.64,57.65a3.6,3.6,0,1,1-3.59-3.6A3.6,3.6,0,0,1,554.36,567.35Zm-13.51,0a3.6,3.6,0,1,1-3.59-3.6A3.6,3.6,0,0,1,540.85,567.35Zm13.51-13.51a3.6,3.6,0,1,1-3.59-3.61A3.6,3.6,0,0,1,554.36,553.84Zm-13.51,0a3.6,3.6,0,1,1-3.59-3.61A3.6,3.6,0,0,1,540.85,553.84Zm-40.54,13.51a3.6,3.6,0,1,1-3.59-3.6A3.6,3.6,0,0,1,500.31,567.35Zm27,0a3.6,3.6,0,1,1-3.59-3.6A3.6,3.6,0,0,1,527.34,567.35Zm-13.51,0a3.6,3.6,0,1,1-3.6-3.6A3.6,3.6,0,0,1,513.83,567.35Zm-13.52-13.51a3.6,3.6,0,1,1-3.59-3.61A3.6,3.6,0,0,1,500.31,553.84Zm27,0a3.6,3.6,0,1,1-3.59-3.61A3.6,3.6,0,0,1,527.34,553.84Zm-13.51,0a3.6,3.6,0,1,1-3.6-3.61A3.61,3.61,0,0,1,513.83,553.84Zm40.53-13.51a3.6,3.6,0,1,1-3.59-3.61A3.59,3.59,0,0,1,554.36,540.33Zm-13.51,0a3.6,3.6,0,1,1-3.59-3.61A3.59,3.59,0,0,1,540.85,540.33Zm13.51-13.51a3.6,3.6,0,1,1-3.59-3.61A3.59,3.59,0,0,1,554.36,526.82Zm-17.1-17.12a3.6,3.6,0,1,1-3.61,3.61A3.6,3.6,0,0,1,537.26,509.7Zm13.51,0a3.6,3.6,0,1,1-3.61,3.61A3.6,3.6,0,0,1,550.77,509.7Zm-9.92,17.12a3.6,3.6,0,1,1-3.59-3.61A3.59,3.59,0,0,1,540.85,526.82Zm-40.54,13.51a3.6,3.6,0,1,1-3.59-3.61A3.59,3.59,0,0,1,500.31,540.33Zm27,0a3.6,3.6,0,1,1-3.59-3.61A3.59,3.59,0,0,1,527.34,540.33Zm-13.51,0a3.6,3.6,0,1,1-3.6-3.61A3.6,3.6,0,0,1,513.83,540.33Zm-13.52-13.51a3.6,3.6,0,1,1-3.59-3.61A3.59,3.59,0,0,1,500.31,526.82Zm27,0a3.6,3.6,0,1,1-3.59-3.61A3.59,3.59,0,0,1,527.34,526.82ZM510.23,509.7a3.6,3.6,0,1,1-3.6,3.61A3.61,3.61,0,0,1,510.23,509.7Zm13.52,0a3.6,3.6,0,1,1-3.61,3.61A3.6,3.6,0,0,1,523.75,509.7Zm-9.92,17.12a3.6,3.6,0,1,1-3.6-3.61A3.6,3.6,0,0,1,513.83,526.82Z" fill="#fef889" fill-rule="evenodd"/><path d="M231.2,34.06a3.6,3.6,0,1,1-3.61,3.61A3.6,3.6,0,0,1,231.2,34.06Zm57.64,57.66a3.6,3.6,0,1,1-3.6-3.61A3.6,3.6,0,0,1,288.84,91.72Zm-13.51,0a3.61,3.61,0,1,1-3.6-3.61A3.6,3.6,0,0,1,275.33,91.72ZM288.84,78.2a3.6,3.6,0,1,1-3.6-3.6A3.6,3.6,0,0,1,288.84,78.2Zm-13.51,0a3.61,3.61,0,1,1-3.6-3.6A3.61,3.61,0,0,1,275.33,78.2ZM234.79,91.72a3.6,3.6,0,1,1-3.59-3.61A3.59,3.59,0,0,1,234.79,91.72Zm27,0a3.6,3.6,0,1,1-3.59-3.61A3.59,3.59,0,0,1,261.81,91.72Zm-13.51,0a3.6,3.6,0,1,1-3.59-3.61A3.59,3.59,0,0,1,248.3,91.72ZM234.79,78.2a3.6,3.6,0,1,1-3.59-3.6A3.6,3.6,0,0,1,234.79,78.2Zm27,0a3.6,3.6,0,1,1-3.59-3.6A3.6,3.6,0,0,1,261.81,78.2Zm-13.51,0a3.6,3.6,0,1,1-3.59-3.6A3.6,3.6,0,0,1,248.3,78.2Zm40.54-13.51a3.6,3.6,0,1,1-3.6-3.61A3.6,3.6,0,0,1,288.84,64.69Zm-13.51,0a3.61,3.61,0,1,1-3.6-3.61A3.6,3.6,0,0,1,275.33,64.69Zm13.51-13.51a3.6,3.6,0,1,1-3.6-3.61A3.6,3.6,0,0,1,288.84,51.18ZM271.73,34.06a3.6,3.6,0,1,1-3.61,3.61A3.61,3.61,0,0,1,271.73,34.06Zm13.51,0a3.6,3.6,0,1,1-3.6,3.61A3.6,3.6,0,0,1,285.24,34.06Zm-9.91,17.12a3.61,3.61,0,1,1-3.6-3.61A3.6,3.6,0,0,1,275.33,51.18ZM234.79,64.69a3.6,3.6,0,1,1-3.59-3.61A3.59,3.59,0,0,1,234.79,64.69Zm27,0a3.6,3.6,0,1,1-3.59-3.61A3.59,3.59,0,0,1,261.81,64.69Zm-13.51,0a3.6,3.6,0,1,1-3.59-3.61A3.59,3.59,0,0,1,248.3,64.69ZM234.79,51.18a3.6,3.6,0,1,1-3.59-3.61A3.59,3.59,0,0,1,234.79,51.18Zm27,0a3.6,3.6,0,1,1-3.59-3.61A3.59,3.59,0,0,1,261.81,51.18Zm-17.1-17.12a3.6,3.6,0,1,1-3.61,3.61A3.6,3.6,0,0,1,244.71,34.06Zm13.51,0a3.6,3.6,0,1,1-3.61,3.61A3.6,3.6,0,0,1,258.22,34.06ZM248.3,51.18a3.6,3.6,0,1,1-3.59-3.61A3.59,3.59,0,0,1,248.3,51.18Z" fill="#7064c8" fill-rule="evenodd"/><path d="M48.43,291a3.6,3.6,0,1,1-3.61,3.61A3.6,3.6,0,0,1,48.43,291Zm57.63,57.65a3.6,3.6,0,1,1-3.59-3.6A3.6,3.6,0,0,1,106.06,348.6Zm-13.51,0A3.6,3.6,0,1,1,89,345,3.6,3.6,0,0,1,92.55,348.6Zm13.51-13.51a3.6,3.6,0,1,1-3.59-3.61A3.59,3.59,0,0,1,106.06,335.09Zm-13.51,0A3.6,3.6,0,1,1,89,331.48,3.59,3.59,0,0,1,92.55,335.09ZM52,348.6a3.6,3.6,0,1,1-3.59-3.6A3.6,3.6,0,0,1,52,348.6Zm27,0a3.6,3.6,0,1,1-3.59-3.6A3.6,3.6,0,0,1,79,348.6Zm-13.51,0a3.6,3.6,0,1,1-3.59-3.6A3.6,3.6,0,0,1,65.53,348.6ZM52,335.09a3.6,3.6,0,1,1-3.59-3.61A3.59,3.59,0,0,1,52,335.09Zm27,0a3.6,3.6,0,1,1-3.59-3.61A3.59,3.59,0,0,1,79,335.09Zm-13.51,0a3.6,3.6,0,1,1-3.59-3.61A3.59,3.59,0,0,1,65.53,335.09Zm40.53-13.51a3.6,3.6,0,1,1-3.59-3.61A3.59,3.59,0,0,1,106.06,321.58Zm-13.51,0A3.6,3.6,0,1,1,89,318,3.59,3.59,0,0,1,92.55,321.58Zm13.51-13.51a3.6,3.6,0,1,1-3.59-3.61A3.59,3.59,0,0,1,106.06,308.07ZM89,291a3.6,3.6,0,1,1-3.61,3.61A3.6,3.6,0,0,1,89,291Zm13.51,0a3.6,3.6,0,1,1-3.61,3.61A3.6,3.6,0,0,1,102.47,291Zm-9.92,17.12A3.6,3.6,0,1,1,89,304.46,3.59,3.59,0,0,1,92.55,308.07ZM52,321.58A3.6,3.6,0,1,1,48.43,318,3.59,3.59,0,0,1,52,321.58Zm27,0A3.6,3.6,0,1,1,75.45,318,3.59,3.59,0,0,1,79,321.58Zm-13.51,0A3.6,3.6,0,1,1,61.94,318,3.59,3.59,0,0,1,65.53,321.58ZM52,308.07a3.6,3.6,0,1,1-3.59-3.61A3.59,3.59,0,0,1,52,308.07Zm27,0a3.6,3.6,0,1,1-3.59-3.61A3.59,3.59,0,0,1,79,308.07ZM61.94,291a3.6,3.6,0,1,1-3.61,3.61A3.6,3.6,0,0,1,61.94,291Zm13.51,0a3.6,3.6,0,1,1-3.61,3.61A3.6,3.6,0,0,1,75.45,291Zm-9.92,17.12a3.6,3.6,0,1,1-3.59-3.61A3.59,3.59,0,0,1,65.53,308.07Z" fill="#6ea775" fill-rule="evenodd"/><path d="M804,193.81a3.6,3.6,0,1,1-3.61,3.61A3.6,3.6,0,0,1,804,193.81Zm57.64,57.65a3.6,3.6,0,1,1-3.59-3.61A3.59,3.59,0,0,1,861.62,251.46Zm-13.51,0a3.6,3.6,0,1,1-3.59-3.61A3.59,3.59,0,0,1,848.11,251.46ZM861.62,238a3.6,3.6,0,1,1-3.59-3.61A3.59,3.59,0,0,1,861.62,238Zm-13.51,0a3.6,3.6,0,1,1-3.59-3.61A3.59,3.59,0,0,1,848.11,238Zm-40.54,13.51a3.6,3.6,0,1,1-3.59-3.61A3.59,3.59,0,0,1,807.57,251.46Zm27,0a3.6,3.6,0,1,1-3.6-3.61A3.6,3.6,0,0,1,834.6,251.46Zm-13.52,0a3.6,3.6,0,1,1-3.59-3.61A3.59,3.59,0,0,1,821.08,251.46ZM807.57,238a3.6,3.6,0,1,1-3.59-3.61A3.59,3.59,0,0,1,807.57,238Zm27,0a3.6,3.6,0,1,1-3.6-3.61A3.6,3.6,0,0,1,834.6,238Zm-13.52,0a3.6,3.6,0,1,1-3.59-3.61A3.59,3.59,0,0,1,821.08,238Zm40.54-13.51a3.6,3.6,0,1,1-3.59-3.61A3.59,3.59,0,0,1,861.62,224.44Zm-13.51,0a3.6,3.6,0,1,1-3.59-3.61A3.59,3.59,0,0,1,848.11,224.44Zm13.51-13.51a3.6,3.6,0,1,1-3.59-3.61A3.59,3.59,0,0,1,861.62,210.93Zm-17.1-17.12a3.6,3.6,0,1,1-3.61,3.61A3.6,3.6,0,0,1,844.52,193.81Zm13.51,0a3.6,3.6,0,1,1-3.61,3.61A3.6,3.6,0,0,1,858,193.81Zm-9.92,17.12a3.6,3.6,0,1,1-3.59-3.61A3.59,3.59,0,0,1,848.11,210.93Zm-40.54,13.51a3.6,3.6,0,1,1-3.59-3.61A3.59,3.59,0,0,1,807.57,224.44Zm27,0a3.6,3.6,0,1,1-3.6-3.61A3.6,3.6,0,0,1,834.6,224.44Zm-13.52,0a3.6,3.6,0,1,1-3.59-3.61A3.59,3.59,0,0,1,821.08,224.44Zm-13.51-13.51a3.6,3.6,0,1,1-3.59-3.61A3.59,3.59,0,0,1,807.57,210.93Zm27,0a3.6,3.6,0,1,1-3.6-3.61A3.6,3.6,0,0,1,834.6,210.93Zm-17.11-17.12a3.6,3.6,0,1,1-3.61,3.61A3.6,3.6,0,0,1,817.49,193.81Zm13.51,0a3.6,3.6,0,1,1-3.6,3.61A3.61,3.61,0,0,1,831,193.81Zm-9.92,17.12a3.6,3.6,0,1,1-3.59-3.61A3.59,3.59,0,0,1,821.08,210.93Z" fill="#ce5dbf" fill-rule="evenodd"/><path d="M897.53,635.63a3.6,3.6,0,1,1-3.61,3.61A3.6,3.6,0,0,1,897.53,635.63Zm57.63,57.65a3.6,3.6,0,1,1-3.59-3.61A3.59,3.59,0,0,1,955.16,693.28Zm-13.51,0a3.6,3.6,0,1,1-3.59-3.61A3.59,3.59,0,0,1,941.65,693.28Zm13.51-13.51a3.6,3.6,0,1,1-3.59-3.61A3.59,3.59,0,0,1,955.16,679.77Zm-13.51,0a3.6,3.6,0,1,1-3.59-3.61A3.59,3.59,0,0,1,941.65,679.77Zm-40.53,13.51a3.6,3.6,0,1,1-3.59-3.61A3.59,3.59,0,0,1,901.12,693.28Zm27,0a3.6,3.6,0,1,1-3.59-3.61A3.59,3.59,0,0,1,928.14,693.28Zm-13.51,0a3.6,3.6,0,1,1-3.59-3.61A3.59,3.59,0,0,1,914.63,693.28Zm-13.51-13.51a3.6,3.6,0,1,1-3.59-3.61A3.59,3.59,0,0,1,901.12,679.77Zm27,0a3.6,3.6,0,1,1-3.59-3.61A3.59,3.59,0,0,1,928.14,679.77Zm-13.51,0a3.6,3.6,0,1,1-3.59-3.61A3.59,3.59,0,0,1,914.63,679.77Zm40.53-13.51a3.6,3.6,0,1,1-3.59-3.61A3.59,3.59,0,0,1,955.16,666.26Zm-13.51,0a3.6,3.6,0,1,1-3.59-3.61A3.59,3.59,0,0,1,941.65,666.26Zm13.51-13.51a3.6,3.6,0,1,1-3.59-3.61A3.59,3.59,0,0,1,955.16,652.75Zm-17.1-17.12a3.6,3.6,0,1,1-3.61,3.61A3.6,3.6,0,0,1,938.06,635.63Zm13.51,0a3.6,3.6,0,1,1-3.61,3.61A3.6,3.6,0,0,1,951.57,635.63Zm-9.92,17.12a3.6,3.6,0,1,1-3.59-3.61A3.59,3.59,0,0,1,941.65,652.75Zm-40.53,13.51a3.6,3.6,0,1,1-3.59-3.61A3.59,3.59,0,0,1,901.12,666.26Zm27,0a3.6,3.6,0,1,1-3.59-3.61A3.59,3.59,0,0,1,928.14,666.26Zm-13.51,0a3.6,3.6,0,1,1-3.59-3.61A3.59,3.59,0,0,1,914.63,666.26Zm-13.51-13.51a3.6,3.6,0,1,1-3.59-3.61A3.59,3.59,0,0,1,901.12,652.75Zm27,0a3.6,3.6,0,1,1-3.59-3.61A3.59,3.59,0,0,1,928.14,652.75ZM911,635.63a3.6,3.6,0,1,1-3.61,3.61A3.6,3.6,0,0,1,911,635.63Zm13.51,0a3.6,3.6,0,1,1-3.61,3.61A3.6,3.6,0,0,1,924.55,635.63Zm-9.92,17.12a3.6,3.6,0,1,1-3.59-3.61A3.59,3.59,0,0,1,914.63,652.75Z" fill="#a6eca9" fill-rule="evenodd"/><path d="M321.44,728a54.62,54.62,0,0,0-77.12-2,1.11,1.11,0,0,0,0,1.58l73.53,77.54a1.12,1.12,0,0,0,1.59,0A54.62,54.62,0,0,0,321.44,728Z" fill="#e64ace"/><path d="M620.48,602.61A54.62,54.62,0,0,0,609.91,679a1.12,1.12,0,0,0,1.57.22l85.21-64.49a1.12,1.12,0,0,0,.21-1.57A54.61,54.61,0,0,0,620.48,602.61Z" fill="#8ad38d"/><path d="M14.9,733.06a60.13,60.13,0,1,1-60.06,60.06A60.14,60.14,0,0,1,14.9,733.06Zm0,6.64a53.49,53.49,0,1,0,53.56,53.42A53.48,53.48,0,0,0,14.9,739.7Z" fill="#4d705c" fill-rule="evenodd"/><path d="M951.78,739.53a60.14,60.14,0,1,1-60.06,60.06A60.14,60.14,0,0,1,951.78,739.53Zm0,6.64a53.5,53.5,0,1,0,53.57,53.42A53.49,53.49,0,0,0,951.78,746.17Z" fill="#797e5d" fill-rule="evenodd"/><path d="M141.19,112.78a59.07,59.07,0,1,1-59,59A59.07,59.07,0,0,1,141.19,112.78Zm0,6.52a52.55,52.55,0,1,0,52.62,52.47A52.54,52.54,0,0,0,141.19,119.3Z" fill="#405e8f" fill-rule="evenodd"/><path d="M947.84,503.51a59.07,59.07,0,1,1-59,59A59.07,59.07,0,0,1,947.84,503.51Zm0,6.52a52.55,52.55,0,1,0,52.61,52.47A52.53,52.53,0,0,0,947.84,510Z" fill="#658471" fill-rule="evenodd"/><path d="M817.92,50.15a57.12,57.12,0,0,0-80.69.44,1.18,1.18,0,0,0,0,1.66l79.46,78.6a1.17,1.17,0,0,0,1.66,0A57.12,57.12,0,0,0,817.92,50.15Z" fill="#ef704c"/><path d="M18.09,599.16a56.21,56.21,0,0,0-.76-79.41,1.14,1.14,0,0,0-1.63,0l-77,78.52a1.15,1.15,0,0,0,0,1.63A56.22,56.22,0,0,0,18.09,599.16Z" fill="#f4ad4f"/><path d="M282.29,530.24a56.22,56.22,0,0,0-78.23-13.67,1.16,1.16,0,0,0-.28,1.61l63.23,90a1.16,1.16,0,0,0,1.61.28A56.21,56.21,0,0,0,282.29,530.24Z" fill="#f4ad4f"/><ellipse cx="112.9" cy="413.13" rx="12.59" ry="13.2" fill="#c350b8"/><ellipse cx="100.12" cy="126.81" rx="11.33" ry="11.87" fill="#e6e35f"/><ellipse cx="68.88" cy="571.06" rx="8.15" ry="8.54" fill="#f07960"/><ellipse cx="454.7" cy="713.91" rx="12.59" ry="13.2" fill="#c350b8"/><ellipse cx="398.45" cy="603.44" rx="8.15" ry="8.54" fill="#f07960"/><ellipse cx="158.59" cy="748.34" rx="7.2" ry="7.54" fill="#7adc73"/><ellipse cx="527.04" cy="673.95" rx="12.26" ry="12.85" fill="#81dde8"/><ellipse cx="599.21" cy="727.21" rx="8.15" ry="8.54" fill="#f07960"/><ellipse cx="634.26" cy="504.13" rx="12.26" ry="12.85" fill="#f3a645"/><ellipse cx="762.27" cy="530.4" rx="6.43" ry="6.74" fill="#f2e763"/><ellipse cx="1027.87" cy="325.68" rx="12.26" ry="12.85" fill="#498ff5"/><ellipse cx="691.83" cy="47.2" rx="12.26" ry="12.85" fill="#ece360"/><ellipse cx="754.29" cy="141.83" rx="7.8" ry="8.18" fill="#e648c9"/><ellipse cx="518.02" cy="169.49" rx="6.12" ry="6.41" fill="#705fd6"/><ellipse cx="909.47" cy="204.8" rx="24.11" ry="25.27" fill="#ef6e48"/><ellipse cx="414.77" cy="154.88" rx="7.21" ry="7.56" fill="#408df7"/><ellipse cx="322.06" cy="183.3" rx="12.35" ry="12.95" fill="#fdffff"/><ellipse cx="840.8" cy="567.65" rx="19.48" ry="20.42" fill="#78dadd"/><path d="M897.17,52.58a14.27,14.27,0,1,0,14.27,14.27A14.28,14.28,0,0,0,897.17,52.58Zm0,26.51a12.24,12.24,0,1,1,12.24-12.24A12.26,12.26,0,0,1,897.17,79.09Z" fill="#8fb096"/><path d="M897.18,36.77a30.09,30.09,0,1,0,30.09,30.09A30.13,30.13,0,0,0,897.18,36.77Zm0,58.66a28.57,28.57,0,1,1,28.57-28.57A28.59,28.59,0,0,1,897.18,95.43Z" fill="#8fb096"/><path d="M156,578.59a14.27,14.27,0,1,0,14.27,14.27A14.29,14.29,0,0,0,156,578.59Zm0,26.51a12.24,12.24,0,1,1,12.25-12.24A12.25,12.25,0,0,1,156,605.1Z" fill="#457571"/><path d="M485.57,611a14.27,14.27,0,1,0,14.27,14.27A14.28,14.28,0,0,0,485.57,611Zm0,26.51a12.24,12.24,0,1,1,12.24-12.24A12.25,12.25,0,0,1,485.57,637.48Z" fill="#457571"/><path d="M686.33,734.74A14.27,14.27,0,1,0,700.6,749,14.28,14.28,0,0,0,686.33,734.74Zm0,26.51A12.25,12.25,0,1,1,698.57,749,12.25,12.25,0,0,1,686.33,761.25Z" fill="#457571"/></svg>