<svg xmlns="http://www.w3.org/2000/svg" viewBox="0 0 1920 1080"><g id="Layer_3" data-name="Layer 3"><rect x="-0.5" y="-0.5" width="1920" height="1078" fill="#12192b"/></g><g id="Layer_11" data-name="Layer 11"><rect x="31.28" y="915.36" width="84" height="10.8" transform="translate(-434.56 149.22) rotate(-28.8)" fill="#ef6f4c"/><rect x="291.88" y="559.76" width="10.8" height="84" transform="translate(-353.88 439.01) rotate(-49.68)" fill="#d6dc7c"/><rect x="785.88" y="880.76" width="10.8" height="84" transform="translate(-424.27 928.92) rotate(-49.68)" fill="#d6dc7c"/><rect x="573.88" y="890.76" width="10.8" height="84" transform="translate(-506.71 770.82) rotate(-49.68)" fill="#d6dc7c"/><rect x="403.28" y="941.36" width="84" height="10.8" transform="translate(-496.3 490.63) rotate(-38.96)" fill="#f4f07d"/><rect x="42.88" y="2.76" width="10.8" height="84" transform="translate(-17.46 48.24) rotate(-45.87)" fill="#83d67c"/><rect x="248.28" y="317.36" width="84" height="10.8" transform="translate(-140.68 270.71) rotate(-41.15)" fill="#7361d0"/><rect x="1078.88" y="82.76" width="10.8" height="84" transform="translate(702.66 1147.3) rotate(-76.1)" fill="#f4ee7c"/><rect x="1219.28" y="318.36" width="84" height="10.8" transform="translate(-23.81 113.55) rotate(-5.11)" fill="#88dde3"/><rect x="1061.88" y="198.76" width="10.8" height="84" transform="translate(91.05 734.75) rotate(-39.55)" fill="#598dee"/><rect x="1531.28" y="602.36" width="84" height="10.8" transform="translate(-107.37 749.21) rotate(-25.93)" fill="#f5b155"/><rect x="1466.88" y="390.76" width="10.8" height="84" transform="translate(109.18 1137.62) rotate(-43.72)" fill="#ef7252"/><rect x="1711.88" y="145.76" width="10.8" height="84" transform="translate(382.34 1284.23) rotate(-45.64)" fill="#dc4dcf"/><rect x="1086.28" y="797.36" width="84" height="10.8" transform="translate(-249.9 668.39) rotate(-29.86)" fill="#3360a6"/><rect x="1376.28" y="1014.36" width="84" height="10.8" transform="translate(-319.44 841.6) rotate(-29.86)" fill="#80d3dc"/><rect x="1805.88" y="821.76" width="10.8" height="84" transform="translate(-37.02 1645.16) rotate(-48.41)" fill="#f3a643"/></g><g id="Layer_4" data-name="Layer 4"><rect x="357.37" y="925.3" width="86.77" height="86.77" transform="translate(-559.68 548.53) rotate(-43.9)" fill="#468af7"/><rect x="1435.65" y="552.89" width="73.85" height="73.85" transform="translate(11.24 1206.95) rotate(-44.72)" fill="#7762d1"/><rect x="200.66" y="183.62" width="79.88" height="79.88" transform="translate(-87.66 234.02) rotate(-44.72)" fill="#ef6f4c"/><rect x="61.66" y="350.62" width="79.88" height="79.88" transform="translate(-245.41 184.55) rotate(-44.72)" fill="#ef6f4c"/><rect x="886.66" y="-6.38" width="79.88" height="79.88" transform="translate(244.61 661.74) rotate(-44.72)" fill="#458bf7"/><rect x="1738.66" y="279.62" width="79.88" height="79.88" transform="translate(290 1344.05) rotate(-44.72)" fill="#8ad38d"/><rect x="1286.65" y="895.89" width="73.85" height="73.85" transform="translate(-276.96 1178.36) rotate(-43.9)" fill="#e64acd"/><text transform="translate(198.89 983.07)" font-size="0.12" font-family="HelveticaNeue-Bold, Helvetica Neue" font-weight="700" style="isolation:isolate">Created by Ioannis Malikoutsakis</text><text transform="translate(198.89 983.18)" font-size="0.12" font-family="HelveticaNeue-Bold, Helvetica Neue" font-weight="700" style="isolation:isolate">from the Noun Project</text></g><g id="Layer_5" data-name="Layer 5"><path d="M203.9,897.6a5,5,0,1,1-5,5A5,5,0,0,1,203.9,897.6ZM284,977.72a5,5,0,1,1-5-5A5,5,0,0,1,284,977.72Zm-18.78,0a5,5,0,1,1-5-5A5,5,0,0,1,265.22,977.72ZM284,959a5,5,0,1,1-5-5A5,5,0,0,1,284,959Zm-18.78,0a5,5,0,1,1-5-5A5,5,0,0,1,265.22,959Zm-56.33,18.77a5,5,0,1,1-5-5A5,5,0,0,1,208.89,977.72Zm37.56,0a5,5,0,1,1-5-5A5,5,0,0,1,246.45,977.72Zm-18.78,0a5,5,0,1,1-5-5A5,5,0,0,1,227.67,977.72ZM208.89,959a5,5,0,1,1-5-5A5,5,0,0,1,208.89,959Zm37.56,0a5,5,0,1,1-5-5A5,5,0,0,1,246.45,959Zm-18.78,0a5,5,0,1,1-5-5A5,5,0,0,1,227.67,959ZM284,940.17a5,5,0,1,1-5-5A5,5,0,0,1,284,940.17Zm-18.78,0a5,5,0,1,1-5-5A5,5,0,0,1,265.22,940.17ZM284,921.39a5,5,0,1,1-5-5A5,5,0,0,1,284,921.39ZM260.23,897.6a5,5,0,1,1-5,5A5,5,0,0,1,260.23,897.6Zm18.78,0a5,5,0,1,1-5,5A5,5,0,0,1,279,897.6Zm-13.79,23.79a5,5,0,1,1-5-5A5,5,0,0,1,265.22,921.39Zm-56.33,18.78a5,5,0,1,1-5-5A5,5,0,0,1,208.89,940.17Zm37.56,0a5,5,0,1,1-5-5A5,5,0,0,1,246.45,940.17Zm-18.78,0a5,5,0,1,1-5-5A5,5,0,0,1,227.67,940.17Zm-18.78-18.78a5,5,0,1,1-5-5A5,5,0,0,1,208.89,921.39Zm37.56,0a5,5,0,1,1-5-5A5,5,0,0,1,246.45,921.39ZM222.68,897.6a5,5,0,1,1-5,5A5,5,0,0,1,222.68,897.6Zm18.77,0a5,5,0,1,1-5,5A5,5,0,0,1,241.45,897.6Zm-13.78,23.79a5,5,0,1,1-5-5A5,5,0,0,1,227.67,921.39Z" fill="#e84acb" fill-rule="evenodd"/><path d="M964.9,710.6a5,5,0,1,1-5,5A5,5,0,0,1,964.9,710.6Zm80.1,80.12a5,5,0,1,1-5-5A5,5,0,0,1,1045,790.72Zm-18.78,0a5,5,0,1,1-5-5A5,5,0,0,1,1026.22,790.72ZM1045,772a5,5,0,1,1-5-5A5,5,0,0,1,1045,772Zm-18.78,0a5,5,0,1,1-5-5A5,5,0,0,1,1026.22,772Zm-56.33,18.77a5,5,0,1,1-5-5A5,5,0,0,1,969.89,790.72Zm37.56,0a5,5,0,1,1-5-5A5,5,0,0,1,1007.45,790.72Zm-18.78,0a5,5,0,1,1-5-5A5,5,0,0,1,988.67,790.72ZM969.89,772a5,5,0,1,1-5-5A5,5,0,0,1,969.89,772Zm37.56,0a5,5,0,1,1-5-5A5,5,0,0,1,1007.45,772Zm-18.78,0a5,5,0,1,1-5-5A5,5,0,0,1,988.67,772ZM1045,753.17a5,5,0,1,1-5-5A5,5,0,0,1,1045,753.17Zm-18.78,0a5,5,0,1,1-5-5A5,5,0,0,1,1026.22,753.17ZM1045,734.39a5,5,0,1,1-5-5A5,5,0,0,1,1045,734.39Zm-23.77-23.79a5,5,0,1,1-5,5A5,5,0,0,1,1021.23,710.6Zm18.78,0a5,5,0,1,1-5,5A5,5,0,0,1,1040,710.6Zm-13.79,23.79a5,5,0,1,1-5-5A5,5,0,0,1,1026.22,734.39Zm-56.33,18.78a5,5,0,1,1-5-5A5,5,0,0,1,969.89,753.17Zm37.56,0a5,5,0,1,1-5-5A5,5,0,0,1,1007.45,753.17Zm-18.78,0a5,5,0,1,1-5-5A5,5,0,0,1,988.67,753.17Zm-18.78-18.78a5,5,0,1,1-5-5A5,5,0,0,1,969.89,734.39Zm37.56,0a5,5,0,1,1-5-5A5,5,0,0,1,1007.45,734.39ZM983.68,710.6a5,5,0,1,1-5,5A5,5,0,0,1,983.68,710.6Zm18.77,0a5,5,0,1,1-5,5A5,5,0,0,1,1002.45,710.6Zm-13.78,23.79a5,5,0,1,1-5-5A5,5,0,0,1,988.67,734.39Z" fill="#fef889" fill-rule="evenodd"/><path d="M595.9,49.6a5,5,0,1,1-5,5A5,5,0,0,1,595.9,49.6ZM676,129.72a5,5,0,1,1-5-5A5,5,0,0,1,676,129.72Zm-18.78,0a5,5,0,1,1-5-5A5,5,0,0,1,657.22,129.72ZM676,111a5,5,0,1,1-5-5A5,5,0,0,1,676,111Zm-18.78,0a5,5,0,1,1-5-5A5,5,0,0,1,657.22,111Zm-56.33,18.77a5,5,0,1,1-5-5A5,5,0,0,1,600.89,129.72Zm37.56,0a5,5,0,1,1-5-5A5,5,0,0,1,638.45,129.72Zm-18.78,0a5,5,0,1,1-5-5A5,5,0,0,1,619.67,129.72ZM600.89,111a5,5,0,1,1-5-5A5,5,0,0,1,600.89,111Zm37.56,0a5,5,0,1,1-5-5A5,5,0,0,1,638.45,111Zm-18.78,0a5,5,0,1,1-5-5A5,5,0,0,1,619.67,111ZM676,92.17a5,5,0,1,1-5-5A5,5,0,0,1,676,92.17Zm-18.78,0a5,5,0,1,1-5-5A5,5,0,0,1,657.22,92.17ZM676,73.39a5,5,0,1,1-5-5A5,5,0,0,1,676,73.39ZM652.23,49.6a5,5,0,1,1-5,5A5,5,0,0,1,652.23,49.6Zm18.78,0a5,5,0,1,1-5,5A5,5,0,0,1,671,49.6ZM657.22,73.39a5,5,0,1,1-5-5A5,5,0,0,1,657.22,73.39ZM600.89,92.17a5,5,0,1,1-5-5A5,5,0,0,1,600.89,92.17Zm37.56,0a5,5,0,1,1-5-5A5,5,0,0,1,638.45,92.17Zm-18.78,0a5,5,0,1,1-5-5A5,5,0,0,1,619.67,92.17ZM600.89,73.39a5,5,0,1,1-5-5A5,5,0,0,1,600.89,73.39Zm37.56,0a5,5,0,1,1-5-5A5,5,0,0,1,638.45,73.39ZM614.68,49.6a5,5,0,1,1-5,5A5,5,0,0,1,614.68,49.6Zm18.77,0a5,5,0,1,1-5,5A5,5,0,0,1,633.45,49.6ZM619.67,73.39a5,5,0,1,1-5-5A5,5,0,0,1,619.67,73.39Z" fill="#7064c8" fill-rule="evenodd"/><path d="M341.9,406.6a5,5,0,1,1-5,5A5,5,0,0,1,341.9,406.6ZM422,486.72a5,5,0,1,1-5-5A5,5,0,0,1,422,486.72Zm-18.78,0a5,5,0,1,1-5-5A5,5,0,0,1,403.22,486.72ZM422,468a5,5,0,1,1-5-5A5,5,0,0,1,422,468Zm-18.78,0a5,5,0,1,1-5-5A5,5,0,0,1,403.22,468Zm-56.33,18.77a5,5,0,1,1-5-5A5,5,0,0,1,346.89,486.72Zm37.56,0a5,5,0,1,1-5-5A5,5,0,0,1,384.45,486.72Zm-18.78,0a5,5,0,1,1-5-5A5,5,0,0,1,365.67,486.72ZM346.89,468a5,5,0,1,1-5-5A5,5,0,0,1,346.89,468Zm37.56,0a5,5,0,1,1-5-5A5,5,0,0,1,384.45,468Zm-18.78,0a5,5,0,1,1-5-5A5,5,0,0,1,365.67,468ZM422,449.17a5,5,0,1,1-5-5A5,5,0,0,1,422,449.17Zm-18.78,0a5,5,0,1,1-5-5A5,5,0,0,1,403.22,449.17ZM422,430.39a5,5,0,1,1-5-5A5,5,0,0,1,422,430.39ZM398.23,406.6a5,5,0,1,1-5,5A5,5,0,0,1,398.23,406.6Zm18.78,0a5,5,0,1,1-5,5A5,5,0,0,1,417,406.6Zm-13.79,23.79a5,5,0,1,1-5-5A5,5,0,0,1,403.22,430.39Zm-56.33,18.78a5,5,0,1,1-5-5A5,5,0,0,1,346.89,449.17Zm37.56,0a5,5,0,1,1-5-5A5,5,0,0,1,384.45,449.17Zm-18.78,0a5,5,0,1,1-5-5A5,5,0,0,1,365.67,449.17Zm-18.78-18.78a5,5,0,1,1-5-5A5,5,0,0,1,346.89,430.39Zm37.56,0a5,5,0,1,1-5-5A5,5,0,0,1,384.45,430.39ZM360.68,406.6a5,5,0,1,1-5,5A5,5,0,0,1,360.68,406.6Zm18.77,0a5,5,0,1,1-5,5A5,5,0,0,1,379.45,406.6Zm-13.78,23.79a5,5,0,1,1-5-5A5,5,0,0,1,365.67,430.39Z" fill="#6ea775" fill-rule="evenodd"/><path d="M21.9,760.6a5,5,0,1,1-5,5A5,5,0,0,1,21.9,760.6ZM102,840.72a5,5,0,1,1-5-5A5,5,0,0,1,102,840.72Zm-18.78,0a5,5,0,1,1-5-5A5,5,0,0,1,83.22,840.72ZM102,822a5,5,0,1,1-5-5A5,5,0,0,1,102,822Zm-18.78,0a5,5,0,1,1-5-5A5,5,0,0,1,83.22,822ZM26.89,840.72a5,5,0,1,1-5-5A5,5,0,0,1,26.89,840.72Zm37.56,0a5,5,0,1,1-5-5A5,5,0,0,1,64.45,840.72Zm-18.78,0a5,5,0,1,1-5-5A5,5,0,0,1,45.67,840.72ZM26.89,822a5,5,0,1,1-5-5A5,5,0,0,1,26.89,822Zm37.56,0a5,5,0,1,1-5-5A5,5,0,0,1,64.45,822Zm-18.78,0a5,5,0,1,1-5-5A5,5,0,0,1,45.67,822ZM102,803.17a5,5,0,1,1-5-5A5,5,0,0,1,102,803.17Zm-18.78,0a5,5,0,1,1-5-5A5,5,0,0,1,83.22,803.17ZM102,784.39a5,5,0,1,1-5-5A5,5,0,0,1,102,784.39ZM78.23,760.6a5,5,0,1,1-5,5A5,5,0,0,1,78.23,760.6Zm18.78,0a5,5,0,1,1-5,5A5,5,0,0,1,97,760.6ZM83.22,784.39a5,5,0,1,1-5-5A5,5,0,0,1,83.22,784.39ZM26.89,803.17a5,5,0,1,1-5-5A5,5,0,0,1,26.89,803.17Zm37.56,0a5,5,0,1,1-5-5A5,5,0,0,1,64.45,803.17Zm-18.78,0a5,5,0,1,1-5-5A5,5,0,0,1,45.67,803.17ZM26.89,784.39a5,5,0,1,1-5-5A5,5,0,0,1,26.89,784.39Zm37.56,0a5,5,0,1,1-5-5A5,5,0,0,1,64.45,784.39ZM40.68,760.6a5,5,0,1,1-5,5A5,5,0,0,1,40.68,760.6Zm18.77,0a5,5,0,1,1-5,5A5,5,0,0,1,59.45,760.6ZM45.67,784.39a5,5,0,1,1-5-5A5,5,0,0,1,45.67,784.39Z" fill="#498ff5" fill-rule="evenodd"/><path d="M1391.9,271.6a5,5,0,1,1-5,5A5,5,0,0,1,1391.9,271.6Zm80.1,80.12a5,5,0,1,1-5-5A5,5,0,0,1,1472,351.72Zm-18.78,0a5,5,0,1,1-5-5A5,5,0,0,1,1453.22,351.72ZM1472,333a5,5,0,1,1-5-5A5,5,0,0,1,1472,333Zm-18.78,0a5,5,0,1,1-5-5A5,5,0,0,1,1453.22,333Zm-56.33,18.77a5,5,0,1,1-5-5A5,5,0,0,1,1396.89,351.72Zm37.56,0a5,5,0,1,1-5-5A5,5,0,0,1,1434.45,351.72Zm-18.78,0a5,5,0,1,1-5-5A5,5,0,0,1,1415.67,351.72ZM1396.89,333a5,5,0,1,1-5-5A5,5,0,0,1,1396.89,333Zm37.56,0a5,5,0,1,1-5-5A5,5,0,0,1,1434.45,333Zm-18.78,0a5,5,0,1,1-5-5A5,5,0,0,1,1415.67,333ZM1472,314.17a5,5,0,1,1-5-5A5,5,0,0,1,1472,314.17Zm-18.78,0a5,5,0,1,1-5-5A5,5,0,0,1,1453.22,314.17ZM1472,295.39a5,5,0,1,1-5-5A5,5,0,0,1,1472,295.39Zm-23.77-23.79a5,5,0,1,1-5,5A5,5,0,0,1,1448.23,271.6Zm18.78,0a5,5,0,1,1-5,5A5,5,0,0,1,1467,271.6Zm-13.79,23.79a5,5,0,1,1-5-5A5,5,0,0,1,1453.22,295.39Zm-56.33,18.78a5,5,0,1,1-5-5A5,5,0,0,1,1396.89,314.17Zm37.56,0a5,5,0,1,1-5-5A5,5,0,0,1,1434.45,314.17Zm-18.78,0a5,5,0,1,1-5-5A5,5,0,0,1,1415.67,314.17Zm-18.78-18.78a5,5,0,1,1-5-5A5,5,0,0,1,1396.89,295.39Zm37.56,0a5,5,0,1,1-5-5A5,5,0,0,1,1434.45,295.39Zm-23.77-23.79a5,5,0,1,1-5,5A5,5,0,0,1,1410.68,271.6Zm18.77,0a5,5,0,1,1-5,5A5,5,0,0,1,1429.45,271.6Zm-13.78,23.79a5,5,0,1,1-5-5A5,5,0,0,1,1415.67,295.39Z" fill="#ce5dbf" fill-rule="evenodd"/><path d="M1759.9,33.6a5,5,0,1,1-5,5A5,5,0,0,1,1759.9,33.6Zm80.1,80.12a5,5,0,1,1-5-5A5,5,0,0,1,1840,113.72Zm-18.78,0a5,5,0,1,1-5-5A5,5,0,0,1,1821.22,113.72ZM1840,95a5,5,0,1,1-5-5A5,5,0,0,1,1840,95Zm-18.78,0a5,5,0,1,1-5-5A5,5,0,0,1,1821.22,95Zm-56.33,18.77a5,5,0,1,1-5-5A5,5,0,0,1,1764.89,113.72Zm37.56,0a5,5,0,1,1-5-5A5,5,0,0,1,1802.45,113.72Zm-18.78,0a5,5,0,1,1-5-5A5,5,0,0,1,1783.67,113.72ZM1764.89,95a5,5,0,1,1-5-5A5,5,0,0,1,1764.89,95Zm37.56,0a5,5,0,1,1-5-5A5,5,0,0,1,1802.45,95Zm-18.78,0a5,5,0,1,1-5-5A5,5,0,0,1,1783.67,95ZM1840,76.17a5,5,0,1,1-5-5A5,5,0,0,1,1840,76.17Zm-18.78,0a5,5,0,1,1-5-5A5,5,0,0,1,1821.22,76.17ZM1840,57.39a5,5,0,1,1-5-5A5,5,0,0,1,1840,57.39ZM1816.23,33.6a5,5,0,1,1-5,5A5,5,0,0,1,1816.23,33.6Zm18.78,0a5,5,0,1,1-5,5A5,5,0,0,1,1835,33.6Zm-13.79,23.79a5,5,0,1,1-5-5A5,5,0,0,1,1821.22,57.39Zm-56.33,18.78a5,5,0,1,1-5-5A5,5,0,0,1,1764.89,76.17Zm37.56,0a5,5,0,1,1-5-5A5,5,0,0,1,1802.45,76.17Zm-18.78,0a5,5,0,1,1-5-5A5,5,0,0,1,1783.67,76.17Zm-18.78-18.78a5,5,0,1,1-5-5A5,5,0,0,1,1764.89,57.39Zm37.56,0a5,5,0,1,1-5-5A5,5,0,0,1,1802.45,57.39ZM1778.68,33.6a5,5,0,1,1-5,5A5,5,0,0,1,1778.68,33.6Zm18.77,0a5,5,0,1,1-5,5A5,5,0,0,1,1797.45,33.6Zm-13.78,23.79a5,5,0,1,1-5-5A5,5,0,0,1,1783.67,57.39Z" fill="#5789df" fill-rule="evenodd"/><path d="M1521.9,885.6a5,5,0,1,1-5,5A5,5,0,0,1,1521.9,885.6Zm80.1,80.12a5,5,0,1,1-5-5A5,5,0,0,1,1602,965.72Zm-18.78,0a5,5,0,1,1-5-5A5,5,0,0,1,1583.22,965.72ZM1602,947a5,5,0,1,1-5-5A5,5,0,0,1,1602,947Zm-18.78,0a5,5,0,1,1-5-5A5,5,0,0,1,1583.22,947Zm-56.33,18.77a5,5,0,1,1-5-5A5,5,0,0,1,1526.89,965.72Zm37.56,0a5,5,0,1,1-5-5A5,5,0,0,1,1564.45,965.72Zm-18.78,0a5,5,0,1,1-5-5A5,5,0,0,1,1545.67,965.72ZM1526.89,947a5,5,0,1,1-5-5A5,5,0,0,1,1526.89,947Zm37.56,0a5,5,0,1,1-5-5A5,5,0,0,1,1564.45,947Zm-18.78,0a5,5,0,1,1-5-5A5,5,0,0,1,1545.67,947ZM1602,928.17a5,5,0,1,1-5-5A5,5,0,0,1,1602,928.17Zm-18.78,0a5,5,0,1,1-5-5A5,5,0,0,1,1583.22,928.17ZM1602,909.39a5,5,0,1,1-5-5A5,5,0,0,1,1602,909.39Zm-23.77-23.79a5,5,0,1,1-5,5A5,5,0,0,1,1578.23,885.6Zm18.78,0a5,5,0,1,1-5,5A5,5,0,0,1,1597,885.6Zm-13.79,23.79a5,5,0,1,1-5-5A5,5,0,0,1,1583.22,909.39Zm-56.33,18.78a5,5,0,1,1-5-5A5,5,0,0,1,1526.89,928.17Zm37.56,0a5,5,0,1,1-5-5A5,5,0,0,1,1564.45,928.17Zm-18.78,0a5,5,0,1,1-5-5A5,5,0,0,1,1545.67,928.17Zm-18.78-18.78a5,5,0,1,1-5-5A5,5,0,0,1,1526.89,909.39Zm37.56,0a5,5,0,1,1-5-5A5,5,0,0,1,1564.45,909.39Zm-23.77-23.79a5,5,0,1,1-5,5A5,5,0,0,1,1540.68,885.6Zm18.77,0a5,5,0,1,1-5,5A5,5,0,0,1,1559.45,885.6Zm-13.78,23.79a5,5,0,1,1-5-5A5,5,0,0,1,1545.67,909.39Z" fill="#a6eca9" fill-rule="evenodd"/></g><g id="Layer_6" data-name="Layer 6"><path d="M721.31,1014a75.89,75.89,0,0,0-107.17-2.84,1.55,1.55,0,0,0-.06,2.2l102.19,107.75a1.55,1.55,0,0,0,2.2.06A75.9,75.9,0,0,0,721.31,1014Z" fill="#e64ace"/><path d="M1136.89,839.72a75.89,75.89,0,0,0-14.69,106.2,1.57,1.57,0,0,0,2.19.31l118.4-89.63a1.55,1.55,0,0,0,.3-2.18A75.91,75.91,0,0,0,1136.89,839.72Z" fill="#8ad38d"/></g><g id="Layer_8" data-name="Layer 8"><path d="M91.3,38A83.57,83.57,0,1,1,7.84,121.47,83.58,83.58,0,0,1,91.3,38Zm0,9.23a74.34,74.34,0,1,0,74.44,74.24A74.32,74.32,0,0,0,91.3,47.23Z" fill="#e64ace" fill-rule="evenodd"/><path d="M295.3,1021a83.57,83.57,0,1,1-83.46,83.47A83.58,83.58,0,0,1,295.3,1021Zm0,9.23a74.34,74.34,0,1,0,74.44,74.24A74.32,74.32,0,0,0,295.3,1030.23Z" fill="#4d705c" fill-rule="evenodd"/><path d="M1597.3,1030a83.57,83.57,0,1,1-83.46,83.47A83.58,83.58,0,0,1,1597.3,1030Zm0,9.23a74.34,74.34,0,1,0,74.44,74.24A74.32,74.32,0,0,0,1597.3,1039.23Z" fill="#797e5d" fill-rule="evenodd"/><path d="M470.82,159a82.08,82.08,0,1,1-82,82A82.09,82.09,0,0,1,470.82,159Zm0,9.07A73,73,0,1,0,543.93,241,73,73,0,0,0,470.82,168.07Z" fill="#405e8f" fill-rule="evenodd"/><path d="M1884.82,639a82.08,82.08,0,1,1-82,82A82.09,82.09,0,0,1,1884.82,639Zm0,9.07A73,73,0,1,0,1957.93,721,73,73,0,0,0,1884.82,648.07Z" fill="#424574" fill-rule="evenodd"/><path d="M1591.82,702a82.08,82.08,0,1,1-82,82A82.09,82.09,0,0,1,1591.82,702Zm0,9.07A73,73,0,1,0,1664.93,784,73,73,0,0,0,1591.82,711.07Z" fill="#658471" fill-rule="evenodd"/></g><g id="Layer_10" data-name="Layer 10"><path d="M3.4,594A78.11,78.11,0,0,0,14.82,703.71a1.6,1.6,0,0,0,2.26-.23l96.32-118.7a1.61,1.61,0,0,0-.23-2.26A78.12,78.12,0,0,0,3.4,594Z" fill="#8ad38d"/><path d="M1411.27,72a79.38,79.38,0,0,0-112.13.61,1.62,1.62,0,0,0,0,2.3l110.42,109.24a1.63,1.63,0,0,0,2.31,0A79.38,79.38,0,0,0,1411.27,72Z" fill="#ef704c"/><path d="M299.74,834.92a78.12,78.12,0,0,0-1.05-110.35,1.61,1.61,0,0,0-2.27,0l-107,109.12a1.61,1.61,0,0,0,0,2.27A78.12,78.12,0,0,0,299.74,834.92Z" fill="#f4ad4f"/><path d="M666.9,739.15a78.12,78.12,0,0,0-108.71-19,1.6,1.6,0,0,0-.39,2.23l87.87,125.09a1.6,1.6,0,0,0,2.23.39A78.12,78.12,0,0,0,666.9,739.15Z" fill="#f4ad4f"/><path d="M1950.74,995.92a78.12,78.12,0,0,0-1-110.35,1.61,1.61,0,0,0-2.27,0L1840.37,994.71a1.61,1.61,0,0,0,0,2.27A78.12,78.12,0,0,0,1950.74,995.92Z" fill="#458af7"/></g><g id="Layer_7" data-name="Layer 7"><ellipse cx="41.5" cy="1063.4" rx="17.5" ry="18.35" fill="#ede76b"/><ellipse cx="431.5" cy="576.4" rx="17.5" ry="18.35" fill="#c350b8"/><ellipse cx="34.89" cy="301.37" rx="9.89" ry="10.37" fill="#7160cf"/><ellipse cx="413.74" cy="178.5" rx="15.74" ry="16.5" fill="#e6e35f"/><ellipse cx="370.32" cy="795.87" rx="11.32" ry="11.87" fill="#f07960"/><ellipse cx="906.5" cy="994.4" rx="17.5" ry="18.35" fill="#c350b8"/><ellipse cx="828.32" cy="840.87" rx="11.32" ry="11.87" fill="#f07960"/><ellipse cx="191.5" cy="666.86" rx="7.5" ry="7.86" fill="#a1e3ec"/><ellipse cx="495" cy="1042.24" rx="10" ry="10.48" fill="#7adc73"/><ellipse cx="1007.04" cy="938.86" rx="17.04" ry="17.86" fill="#81dde8"/><ellipse cx="1107.32" cy="1012.87" rx="11.32" ry="11.87" fill="#f07960"/><ellipse cx="1156.04" cy="702.86" rx="17.04" ry="17.86" fill="#f3a645"/><ellipse cx="1333.93" cy="739.36" rx="8.93" ry="9.36" fill="#f2e763"/><ellipse cx="1718.74" cy="972.5" rx="15.74" ry="16.5" fill="#7963d7"/><ellipse cx="1703.04" cy="454.86" rx="17.04" ry="17.86" fill="#498ff5"/><ellipse cx="1906.04" cy="184.86" rx="17.04" ry="17.86" fill="#498ff5"/><ellipse cx="1236.04" cy="67.86" rx="17.04" ry="17.86" fill="#ece360"/><ellipse cx="1322.84" cy="199.36" rx="10.84" ry="11.36" fill="#e648c9"/><ellipse cx="994.5" cy="237.81" rx="8.5" ry="8.91" fill="#705fd6"/><ellipse cx="1797.69" cy="475.5" rx="16.69" ry="17.5" fill="#ef6e48"/><ellipse cx="1538.5" cy="286.88" rx="33.5" ry="35.12" fill="#ef6e48"/><ellipse cx="851.02" cy="217.5" rx="10.02" ry="10.5" fill="#408df7"/><ellipse cx="722.17" cy="257" rx="17.17" ry="18" fill="#fdffff"/><ellipse cx="1727" cy="649.24" rx="10" ry="10.48" fill="#78dadd"/><ellipse cx="1875.07" cy="543.14" rx="27.07" ry="28.38" fill="#78dadd"/><ellipse cx="1443.07" cy="791.14" rx="27.07" ry="28.38" fill="#78dadd"/></g><g id="Layer_9" data-name="Layer 9"><path d="M1521.4,75.34a19.83,19.83,0,1,0,19.83,19.83A19.85,19.85,0,0,0,1521.4,75.34Zm0,36.84a17,17,0,1,1,17-17A17,17,0,0,1,1521.4,112.18Z" fill="#8fb096"/><path d="M1521.42,53.37a41.82,41.82,0,1,0,41.81,41.81A41.86,41.86,0,0,0,1521.42,53.37Zm0,81.52a39.71,39.71,0,1,1,39.7-39.71A39.75,39.75,0,0,1,1521.42,134.89Z" fill="#8fb096"/><path d="M231.4-.66a19.83,19.83,0,1,0,19.83,19.83A19.85,19.85,0,0,0,231.4-.66Zm0,36.84a17,17,0,1,1,17-17A17,17,0,0,1,231.4,36.18Z" fill="#8fb096"/><path d="M231.42-22.63a41.82,41.82,0,1,0,41.81,41.81A41.86,41.86,0,0,0,231.42-22.63Zm0,81.52a39.71,39.71,0,1,1,39.7-39.71A39.75,39.75,0,0,1,231.42,58.89Z" fill="#8fb096"/><path d="M491.4,806.34a19.83,19.83,0,1,0,19.83,19.83A19.85,19.85,0,0,0,491.4,806.34Zm0,36.84a17,17,0,1,1,17-17A17,17,0,0,1,491.4,843.18Z" fill="#457571"/><path d="M949.4,851.34a19.83,19.83,0,1,0,19.83,19.83A19.85,19.85,0,0,0,949.4,851.34Zm0,36.84a17,17,0,1,1,17-17A17,17,0,0,1,949.4,888.18Z" fill="#457571"/><path d="M1228.4,1023.34a19.83,19.83,0,1,0,19.83,19.83A19.85,19.85,0,0,0,1228.4,1023.34Zm0,36.84a17,17,0,1,1,17-17A17,17,0,0,1,1228.4,1060.18Z" fill="#457571"/></g></svg>